<svg xmlns="http://www.w3.org/2000/svg" xmlns:xlink="http://www.w3.org/1999/xlink" viewBox="0 0 45 45"><defs><style>.cls-1{fill:#de4c46;}.cls-2{fill:#8c8c8c;}.cls-3{fill:#fff;}.cls-4{opacity:0.61;fill:url(#radial-gradient);}.cls-4,.cls-5,.cls-6{isolation:isolate;}.cls-5{opacity:0.44;}.cls-6{opacity:0.3;}</style><radialGradient id="radial-gradient" cx="22.5" cy="-1010.5" r="22.5" gradientTransform="matrix(1, 0, 0, -1, 0, -988)" gradientUnits="userSpaceOnUse"><stop offset="0.81" stop-color="#020202" stop-opacity="0"/><stop offset="1" stop-color="#020202" stop-opacity="0.3"/></radialGradient></defs><title>chip1</title><g id="Layer_2" data-name="Layer 2"><g id="Layer_1-2" data-name="Layer 1"><g id="Слой_2" data-name="Слой 2"><g id="Слой_1-2" data-name="Слой 1-2"><circle class="cls-1" cx="22.6" cy="22.4" r="21"/><path class="cls-2" d="M22.6,36.9A14.5,14.5,0,1,1,37.1,22.4h0A14.58,14.58,0,0,1,22.6,36.9Zm0-28A13.5,13.5,0,1,0,36.1,22.4h0A13.57,13.57,0,0,0,22.6,8.9Z"/><path class="cls-3" d="M22.6,36.8h-1V36h1Zm1,0V36c.3,0,.6-.1,1-.1l.1.7c-.4.1-.8.1-1.1.2Zm-3.1-.2a3.55,3.55,0,0,1-1-.2l.2-.7c.3.1.6.1,1,.2Zm5.1-.1-.2-.7a2.92,2.92,0,0,1,.9-.2l.2.7a5.07,5.07,0,0,0-.9.2Zm-7.1-.3-1-.3.3-.7.9.3Zm9.1-.3-.3-.7a3.55,3.55,0,0,0,.9-.4l.3.7a3.55,3.55,0,0,0-.9.4Zm-11-.4a4.05,4.05,0,0,1-.9-.5l.4-.7a3.55,3.55,0,0,0,.9.4ZM29.5,35l-.4-.7a5.58,5.58,0,0,0,.8-.5l.4.6A4.17,4.17,0,0,1,29.5,35Zm-14.7-.5a5.55,5.55,0,0,1-.8-.6l.4-.6c.3.2.5.4.8.6Zm16.4-.6-.5-.6c.3-.2.5-.4.8-.6l.5.6c-.3.2-.5.4-.8.6Zm-18-.6c-.3-.2-.5-.5-.8-.7L13,32a4.62,4.62,0,0,1,.7.7Zm19.6-.7-.6-.6a4.62,4.62,0,0,1,.7-.7l.6.5a2.7,2.7,0,0,0-.7.8Zm-21-.8c-.2-.3-.4-.5-.6-.8l.6-.5c.2.3.4.5.6.8ZM34.1,31l-.6-.5c.2-.3.4-.5.6-.8l.6.4Zm-23.6-.8a4.05,4.05,0,0,1-.5-.9l.7-.4a5.58,5.58,0,0,0,.5.8Zm24.7-.9-.7-.4a3.55,3.55,0,0,0,.4-.9l.7.3a10.37,10.37,0,0,1-.4,1ZM9.5,28.4a10.37,10.37,0,0,1-.4-1l.7-.3a3.55,3.55,0,0,0,.4.9Zm26.5-1-.7-.3.3-.9.7.2A2.93,2.93,0,0,1,36,27.4ZM8.8,26.5c-.1-.3-.2-.7-.3-1l.7-.2c.1.3.1.6.2.9Zm27.8-1-.7-.2c.1-.3.1-.6.2-1l.7.1c-.1.4-.1.7-.2,1.1Zm-28.3-1c0-.3-.1-.7-.1-1l.8-.1a3.4,3.4,0,0,0,.1,1Zm28.6-1h-.8v-1l.8-.1v1.1Zm-28.7-1h0v-1H9v.9Zm28-1.1a3.4,3.4,0,0,0-.1-1l.7-.1c0,.3.1.7.1,1ZM9.1,20.5l-.7-.1a3.55,3.55,0,0,1,.2-1l.7.2A2.39,2.39,0,0,0,9.1,20.5Zm26.8-1a2.92,2.92,0,0,1-.2-.9l.7-.2c.1.3.2.7.3,1ZM9.5,18.6l-.7-.2c.1-.3.2-.7.3-1l.7.3A9.44,9.44,0,0,0,9.5,18.6Zm25.8-1a3.55,3.55,0,0,0-.4-.9l.7-.3a10.37,10.37,0,0,1,.4,1Zm-25.2-.8-.7-.3a4.05,4.05,0,0,1,.5-.9l.7.4a2.77,2.77,0,0,0-.5.8Zm24.4-1A5.58,5.58,0,0,0,34,15l.6-.4a4.05,4.05,0,0,1,.5.9ZM11.1,15l-.6-.4a5.55,5.55,0,0,1,.6-.8l.6.4C11.4,14.5,11.3,14.8,11.1,15Zm22.3-.9c-.2-.3-.4-.5-.6-.8l.6-.5a5,5,0,0,0,.7.8Zm-21.2-.7-.5-.4c.2-.3.5-.5.7-.8l.5.5a2.34,2.34,0,0,1-.7.7Zm20-.7a4.62,4.62,0,0,1-.7-.7l.5-.6a4.62,4.62,0,0,1,.7.7Zm-18.6-.6-.5-.6c.3-.2.5-.4.8-.6l.4.6a4.35,4.35,0,0,1-.7.6Zm17.1-.7c-.3-.2-.5-.4-.8-.6l.4-.6.9.6Zm-15.5-.5-.4-.6a4.05,4.05,0,0,1,.9-.5l.4.7a3.92,3.92,0,0,0-.9.4ZM29,10.4a3.55,3.55,0,0,0-.9-.4l.3-.7a4.05,4.05,0,0,1,.9.5ZM16.9,10l-.3-.7a10.37,10.37,0,0,1,1-.4l.3.7A5.13,5.13,0,0,0,16.9,10Zm10.4-.4-.9-.3.2-.7,1,.3Zm-8.6-.3-.2-.7,1-.3.2.7c-.4.1-.7.2-1,.3Zm6.7-.2c-.3-.1-.6-.1-1-.2l.1-.7a3.55,3.55,0,0,1,1,.2Zm-4.8-.2-.1-.7c.3,0,.7-.1,1-.1l.1.8A3.33,3.33,0,0,0,20.6,8.9Zm2.9-.1h-.9V8h1Z"/><path class="cls-3" d="M8.9,38.2A21.16,21.16,0,0,1,2.1,26.4l4.9-1a15.88,15.88,0,0,0,5.2,9Zm27.3-.1L33,34.3a15.88,15.88,0,0,0,5.2-9l4.9.9v.1a20.43,20.43,0,0,1-6.9,11.8ZM17.3,7.4,15.6,2.7a20.91,20.91,0,0,1,10.8-.8,22.91,22.91,0,0,1,2.8.7L27.6,7.3c-.6-.2-1.3-.3-2.1-.5A16.4,16.4,0,0,0,17.3,7.4Z"/><circle class="cls-4" cx="22.5" cy="22.5" r="22.5"/><circle class="cls-5" cx="22.5" cy="22.2" r="13"/><image class="cls-6" width="11" height="17" transform="translate(16 14)" xlink:href="../../source/img/roulette/9BD0859A.png"/><path class="cls-3" d="M24,27.5H22V20.1a6.44,6.44,0,0,1-2.5,1.5V19.8a5.85,5.85,0,0,0,1.7-1,3.11,3.11,0,0,0,1.2-1.6H24Z"/></g></g></g></g></svg>