<svg xmlns="http://www.w3.org/2000/svg" xmlns:xlink="http://www.w3.org/1999/xlink" viewBox="0 0 45 45"><defs><style>.cls-1{fill:#2b24d3;}.cls-2{fill:#8c8c8c;}.cls-3{fill:#fff;}.cls-4{opacity:0.61;fill:url(#radial-gradient);}.cls-4,.cls-5,.cls-6{isolation:isolate;}.cls-5,.cls-6{opacity:0.3;}</style><radialGradient id="radial-gradient" cx="22.5" cy="2090.5" r="22.5" gradientTransform="translate(0 -2068)" gradientUnits="userSpaceOnUse"><stop offset="0.81" stop-color="#020202" stop-opacity="0"/><stop offset="1" stop-color="#020202" stop-opacity="0.3"/></radialGradient></defs><title>chip5</title><g id="Layer_2" data-name="Layer 2"><g id="Layer_1-2" data-name="Layer 1"><g id="Слой_2" data-name="Слой 2"><g id="Слой_1-2" data-name="Слой 1-2"><circle class="cls-1" cx="22.5" cy="22.5" r="21"/><path class="cls-2" d="M22.5,37A14.5,14.5,0,1,1,37,22.5,14.51,14.51,0,0,1,22.5,37Zm0-28A13.5,13.5,0,1,0,36,22.5,13.44,13.44,0,0,0,22.5,9Z"/><path class="cls-3" d="M22.5,36.9h-1v-.8h1Zm1,0v-.8c.3,0,.6-.1,1-.1l.1.7c-.4.1-.7.1-1.1.2Zm-3-.1a3.55,3.55,0,0,1-1-.2l.2-.7c.3.1.6.1,1,.2Zm5.1-.2-.2-.7a2.92,2.92,0,0,1,.9-.2l.2.7a2.92,2.92,0,0,0-.9.2Zm-7.1-.3c-.3-.1-.7-.2-1-.3l.3-.7.9.3Zm9-.3-.3-.7a3.55,3.55,0,0,0,.9-.4l.3.7A7.93,7.93,0,0,1,27.5,36Zm-11-.4a4.05,4.05,0,0,1-.9-.5l.4-.7a3.55,3.55,0,0,0,.9.4Zm12.9-.5-.4-.6a5.58,5.58,0,0,0,.8-.5l.4.6a2.18,2.18,0,0,1-.8.5Zm-14.7-.5a5.55,5.55,0,0,1-.8-.6l.4-.6c.3.2.5.4.8.6ZM31.1,34l-.5-.6c.3-.2.5-.4.8-.6l.5.6A5.55,5.55,0,0,1,31.1,34Zm-18-.6c-.3-.2-.5-.5-.8-.7l.5-.5a4.62,4.62,0,0,1,.7.7Zm19.6-.8-.5-.5a4.62,4.62,0,0,1,.7-.7l.6.5a6.53,6.53,0,0,0-.8.7Zm-21-.7c-.2-.3-.4-.5-.6-.8l.6-.5c.2.3.4.5.6.8ZM34,31.1l-.6-.5c.2-.3.4-.5.6-.8l.6.4A7,7,0,0,1,34,31.1Zm-23.6-.8a4.05,4.05,0,0,1-.5-.9l.7-.4a5.58,5.58,0,0,0,.5.8Zm24.7-.9-.6-.4a3.55,3.55,0,0,0,.4-.9l.7.3a9.29,9.29,0,0,1-.5,1ZM9.4,28.5a10.37,10.37,0,0,1-.4-1l.7-.3a3.55,3.55,0,0,0,.4.9Zm26.6-1-.7-.3.3-.9.7.2c-.1.3-.2.7-.3,1ZM8.7,26.6c-.1-.3-.2-.7-.3-1l.7-.2c.1.3.1.6.2.9Zm27.8-1-.7-.2c.1-.3.1-.6.2-1l.7.1a4.25,4.25,0,0,1-.2,1.1Zm-28.2-1c0-.3-.1-.7-.1-1H9a3.4,3.4,0,0,0,.1,1Zm28.5-1.1H36v-1l.8-.1v.1a1.7,1.7,0,0,1,0,1Zm-28.7-1h0v-1h.8v.9Zm28-1a3.4,3.4,0,0,0-.1-1l.7-.1c0,.3.1.7.1,1ZM9,20.6l-.7-.1a3.55,3.55,0,0,1,.2-1l.7.2C9.1,20,9.1,20.3,9,20.6Zm26.8-1a2.92,2.92,0,0,1-.2-.9l.7-.2c.1.3.2.7.3,1ZM9.4,18.7l-.7-.2c.1-.3.2-.7.3-1l.7.3Zm25.8-1a3.55,3.55,0,0,0-.4-.9l.7-.3a10.37,10.37,0,0,1,.4,1Zm-25.1-.8-.7-.3a4.05,4.05,0,0,1,.5-.9l.7.4a2.18,2.18,0,0,0-.5.8Zm24.3-1a5.58,5.58,0,0,0-.5-.8l.6-.4a4.05,4.05,0,0,1,.5.9ZM11,15.2l-.6-.4A5.55,5.55,0,0,1,11,14l.6.4A5.55,5.55,0,0,0,11,15.2Zm22.4-.9c-.2-.3-.4-.5-.6-.8l.6-.5a5,5,0,0,0,.7.8Zm-21.2-.7-.6-.5c.2-.3.5-.5.7-.8l.5.5a5.55,5.55,0,0,1-.6.8Zm19.9-.8a4.62,4.62,0,0,1-.7-.7l.5-.6a4.62,4.62,0,0,1,.7.7Zm-18.6-.6-.5-.5c.3-.2.5-.4.8-.6l.4.6c-.2.1-.4.3-.7.5Zm17.1-.6c-.3-.2-.5-.4-.8-.6l.4-.6.9.6Zm-15.5-.5-.4-.6a4.05,4.05,0,0,1,.9-.5l.4.7A1.8,1.8,0,0,0,15.1,11.1ZM29,10.5a3.55,3.55,0,0,0-.9-.4l.3-.7a4.05,4.05,0,0,1,.9.5Zm-12.2-.4-.3-.7c.3-.1.6-.3.9-.4l.3.7a3.55,3.55,0,0,1-.9.4Zm10.4-.4-.9-.3.2-.7c.3.1.7.2,1,.3Zm-8.6-.3-.2-.7c.3-.1.7-.2,1-.3l.2.7a5.39,5.39,0,0,1-1,.3Zm6.8-.2c-.3-.1-.6-.1-1-.2l.1-.7a3.55,3.55,0,0,1,1,.2ZM20.5,9l-.1-.7c.3,0,.7-.1,1-.1l.1.8A3.35,3.35,0,0,0,20.5,9Zm2.9-.1h-.9V8.1h1Z"/><path class="cls-3" d="M8.9,38.3A21.31,21.31,0,0,1,2,26.5l4.9-1a15.88,15.88,0,0,0,5.2,9Zm27.3-.1-3.3-3.8a15.88,15.88,0,0,0,5.2-9l4.9.9v.1A20.83,20.83,0,0,1,36.2,38.2ZM17.3,7.5,15.6,2.8A20.91,20.91,0,0,1,26.4,2a22.91,22.91,0,0,1,2.8.7L27.6,7.5l-2.1-.6A16.23,16.23,0,0,0,17.3,7.5Z"/><circle class="cls-4" cx="22.5" cy="22.5" r="22.5"/><circle class="cls-5" cx="22.5" cy="22.5" r="13"/><image class="cls-6" width="13" height="17" transform="translate(16 14)" xlink:href="../../source/img/roulette/238CBA6D.png"/><path class="cls-3" d="M19.1,24.9l2-.2a1.39,1.39,0,0,0,.5,1,1.28,1.28,0,0,0,1,.4,1.23,1.23,0,0,0,1-.5,2,2,0,0,0,.4-1.5,2.3,2.3,0,0,0-.4-1.4,1.61,1.61,0,0,0-1.1-.5,2.13,2.13,0,0,0-1.5.7l-1.6-.2,1-5.3h5.2v1.9H21.9L21.5,21a3,3,0,0,1,3.5.6,3.84,3.84,0,0,1,.9,2.5,3.89,3.89,0,0,1-.7,2.3,3.37,3.37,0,0,1-2.8,1.4,3.31,3.31,0,0,1-2.3-.7A3.21,3.21,0,0,1,19.1,24.9Z"/></g></g></g></g></svg>