<svg xmlns="http://www.w3.org/2000/svg" style="display: none;"><symbol id="hearts" viewBox="0 0 10 10"><title>hearts</title><path d="M4.99545 9.49576C7.70223 7.54967 9.0564 5.76959 9.69319 4.4118C10.4371 2.82535 9.79 0.858727 8.1668 0.198814C6.25884 -0.57655 4.99545 1.21233 4.99545 1.21233C4.99545 1.21233 3.74102 -0.581209 1.83325 0.1945C0.210038 0.854413 -0.437105 2.82104 0.306851 4.40749C0.94364 5.76511 2.28866 7.54984 4.99545 9.49576Z"/></symbol><symbol id="diamond" viewBox="0 0 8 10"><title>diamond</title><path d="M7.53479 4.82759L4.08651 10L0.46582 4.82759L3.9141 0L7.53479 4.82759Z"/></symbol><symbol id="spades" viewBox="0 0 10 11"><title>spades</title><path d="M9.61657 4.4533C8.94943 3.27403 7.58427 1.57655 5.03304 0.00924098C5.01304 -0.00308033 4.98697 -0.00308033 4.96715 0.00924098C2.41628 1.57655 1.05076 3.22242 0.383445 4.4017C-0.401369 5.78865 0.0461267 7.46435 1.47343 8.17291C1.84557 8.35755 2.11611 8.38184 2.437 8.38184C2.437 8.38184 2.51557 8.37916 2.64485 8.35987C3.21842 8.27416 3.74573 7.99541 4.15376 7.58327L4.2118 7.5247C4.29662 7.43899 4.44215 7.50631 4.4309 7.62649C4.37037 8.27737 4.25269 9.25379 3.75466 9.87486C3.60198 10.0652 3.72698 10.3463 3.97109 10.3463H6.03071C6.2741 10.3463 6.39821 10.0659 6.24571 9.87611C5.74143 9.24826 5.6275 8.25666 5.56589 7.6056C5.55625 7.50399 5.68161 7.44917 5.75036 7.5247C6.10607 7.91649 6.56499 8.20434 7.07677 8.33898C7.36159 8.41398 7.56266 8.43362 7.56266 8.43362C7.88355 8.43362 8.15426 8.40934 8.52622 8.2247C9.95389 7.51595 10.4014 5.84026 9.61657 4.4533Z"/></symbol><symbol id="clover" viewBox="0 0 10 10"><title>clover</title><path d="M9.03207 4.06707C8.6281 3.28776 7.69138 2.94724 6.85414 3.21103C6.69672 3.26069 6.51655 3.31948 6.33017 3.39017C6.5369 3.04431 6.68604 2.675 6.77776 2.38397C7.04172 1.54672 6.70103 0.61 5.9219 0.206034C5.66759 0.0744828 5.43655 0 5.13034 0C4.82414 0 4.53552 0.0860345 4.28121 0.217759C3.5019 0.621724 3.16138 1.55845 3.42517 2.39569C3.52241 2.70414 3.6531 3.09914 3.84517 3.46C3.59741 3.35672 3.35207 3.27621 3.14569 3.21121C2.30845 2.94724 1.37172 3.28776 0.967759 4.06724C0.836034 4.32155 0.75 4.61017 0.75 4.91638C0.75 5.22259 0.824483 5.45345 0.956207 5.70776C1.36017 6.48707 2.2969 6.82759 3.13414 6.56379C3.48345 6.45362 3.94569 6.26155 4.34414 5.98465L3.89138 10H6.10862L5.65569 5.98448C6.05414 6.26138 6.51638 6.45362 6.86569 6.56362C7.70293 6.82759 8.63966 6.4869 9.04362 5.70759C9.17535 5.45328 9.24983 5.22224 9.24983 4.91621C9.24983 4.61017 9.16379 4.32138 9.03207 4.06707Z"/></symbol></svg>